PathFileType	4	(X/Y/Z)	output.trc
DataRate	CameraRate	NumFrames	NumMarkers	Units	OrigDataRate	OrigDataStartFrame	OrigNumFrames
100	100	9	23	m	100	1315	5257
Frame#	Time	C7			T8			EL			EM			US			RS			AA			Fore_Clus_1			Fore_Clus_2			Fore_Clus_3			Fore_Clus_4			Hum_Clus_1			Hum_Clus_2			Hum_Clus_3			Hum_Clus_4			Thor_Clus_1			Thor_Clus_2			Thor_Clus_3			Thor_Clus_4			IJ			PX			GH			Thor_Clus_5		
		X1	Y1	Z1	X2	Y2	Z2	X3	Y3	Z3	X4	Y4	Z4	X5	Y5	Z5	X6	Y6	Z6	X7	Y7	Z7	X8	Y8	Z8	X9	Y9	Z9	X10	Y10	Z10	X11	Y11	Z11	X12	Y12	Z12	X13	Y13	Z13	X14	Y14	Z14	X15	Y15	Z15	X16	Y16	Z16	X17	Y17	Z17	X18	Y18	Z18	X19	Y19	Z19	X20	Y20	Z20	X21	Y21	Z21	X22	Y22	Z22	X23	Y23	Z23
1314	13.140000	-0.000832	1.646223	-0.058832	-0.008022	1.404587	-0.125100	-0.204627	1.212829	0.067926	-0.145712	1.208623	0.029643	-0.228858	0.919517	0.089046	-0.197232	0.919521	0.140125	-0.144439	1.533653	0.112195	-0.252990	0.969409	0.107790	-0.256786	0.915207	0.114940	-0.242780	0.917696	0.139358	-0.230170	0.973233	0.146385	-0.189559	1.323090	0.140537	-0.219909	1.340731	0.091733	-0.216092	1.403845	0.099039	-0.178565	1.396543	0.143528	0.153971	1.541905	0.057946	0.123285	1.486469	0.114169	0.119419	1.536925	0.086313	0.172534	1.493121	0.072837	0.080757	1.566819	0.028995	0.125160	1.365867	0.059101	-0.120778	1.515704	0.093711	0.115077	1.507798	0.107359
1315	13.150000	-0.000834	1.646212	-0.059114	-0.008018	1.404560	-0.125322	-0.204647	1.212854	0.067298	-0.145764	1.208677	0.028961	-0.225367	0.919440	0.094634	-0.194318	0.921095	0.146039	-0.144538	1.533703	0.111871	-0.250410	0.969434	0.111881	-0.253163	0.914947	0.120096	-0.239026	0.917486	0.144327	-0.228187	0.974616	0.150612	-0.189481	1.323072	0.139936	-0.219893	1.340771	0.091218	-0.216133	1.403860	0.098565	-0.178510	1.396543	0.143006	0.153912	1.541986	0.057763	0.123142	1.486523	0.114012	0.119284	1.536951	0.086114	0.172439	1.493170	0.072706	0.080703	1.566822	0.028774	0.125068	1.365873	0.058955	-0.120797	1.515717	0.093213	0.114975	1.507836	0.107209
1316	13.160000	-0.000846	1.646195	-0.059396	-0.008013	1.404528	-0.125554	-0.204651	1.212852	0.066681	-0.145810	1.208711	0.028278	-0.221731	0.919540	0.100548	-0.191241	0.922912	0.152203	-0.144640	1.533733	0.111545	-0.247670	0.969630	0.116153	-0.249937	0.915425	0.125742	-0.236897	0.919737	0.150492	-0.226073	0.975518	0.154992	-0.189396	1.323009	0.139349	-0.219851	1.340751	0.090713	-0.216116	1.403821	0.098118	-0.178408	1.396443	0.142482	0.153844	1.541999	0.057569	0.123029	1.486557	0.113830	0.119185	1.536974	0.085887	0.172334	1.493188	0.072546	0.080644	1.566819	0.028549	0.124982	1.365874	0.058796	-0.120797	1.515702	0.092744	0.114901	1.507871	0.107023
1317	13.170000	-0.000869	1.646174	-0.059672	-0.008011	1.404497	-0.125795	-0.204639	1.212819	0.066076	-0.145846	1.208716	0.027596	-0.217967	0.919843	0.106775	-0.188001	0.924986	0.158590	-0.144741	1.533741	0.111223	-0.244891	0.969847	0.120616	-0.246538	0.915889	0.131621	-0.234031	0.921364	0.156552	-0.223936	0.977272	0.159647	-0.189277	1.322873	0.138746	-0.219788	1.340670	0.090204	-0.215996	1.403731	0.097685	-0.178311	1.396289	0.142025	0.153775	1.541990	0.057360	0.122945	1.486559	0.113626	0.119093	1.536974	0.085673	0.172264	1.493186	0.072344	0.080580	1.566810	0.028322	0.124901	1.365869	0.058620	-0.120777	1.515651	0.092305	0.114760	1.507897	0.106799
1318	13.180000	-0.000899	1.646140	-0.059951	-0.007996	1.404455	-0.126052	-0.204611	1.212746	0.065484	-0.145871	1.208687	0.026917	-0.214075	0.920375	0.113299	-0.184595	0.927342	0.165181	-0.144843	1.533716	0.110889	-0.241935	0.970341	0.125341	-0.242934	0.916716	0.137869	-0.229699	0.921607	0.162171	-0.221721	0.979166	0.164460	-0.189101	1.322682	0.138169	-0.219695	1.340560	0.089685	-0.215869	1.403593	0.097295	-0.178155	1.396072	0.141605	0.153569	1.541998	0.057090	0.122875	1.486561	0.113412	0.119054	1.536979	0.085464	0.172159	1.493222	0.072120	0.080514	1.566790	0.028089	0.124834	1.365855	0.058429	-0.120737	1.515561	0.091889	0.114933	1.507862	0.106722
1319	13.190000	-0.000938	1.646101	-0.060222	-0.007979	1.404415	-0.126321	-0.204566	1.212633	0.064905	-0.145884	1.208618	0.026245	-0.210073	0.921160	0.120100	-0.181025	0.929991	0.171941	-0.144943	1.533665	0.110558	-0.238949	0.970923	0.130555	-0.238729	0.917458	0.144585	-0.226406	0.923620	0.168876	-0.220067	0.982174	0.170578	-0.188942	1.322407	0.137622	-0.219661	1.340388	0.089247	-0.215747	1.403426	0.096964	-0.177890	1.395821	0.141150	0.153513	1.541919	0.056886	0.122796	1.486527	0.113220	0.118971	1.536953	0.085234	0.172156	1.493149	0.071856	0.080446	1.566763	0.027855	0.124775	1.365832	0.058218	-0.120677	1.515427	0.091496	0.114871	1.507862	0.106487
1320	13.200000	-0.000982	1.646052	-0.060492	-0.007949	1.404367	-0.126606	-0.204502	1.212477	0.064341	-0.145880	1.208508	0.025586	-0.205964	0.922225	0.127156	-0.177291	0.932956	0.178848	-0.145043	1.533581	0.110218	-0.235817	0.971781	0.136093	-0.234822	0.918789	0.151692	-0.222357	0.925719	0.175961	-0.216515	0.983755	0.175221	-0.188762	1.322120	0.137115	-0.219522	1.340179	0.088797	-0.215635	1.403195	0.096618	-0.177653	1.395533	0.140683	0.153407	1.541861	0.056686	0.122731	1.486479	0.113013	0.118974	1.536874	0.085043	0.172118	1.493123	0.071666	0.080377	1.566724	0.027617	0.124729	1.365801	0.057991	-0.120602	1.515251	0.091118	0.114786	1.507791	0.106269
1321	13.210000	-0.001031	1.645993	-0.060762	-0.007907	1.404314	-0.126906	-0.204420	1.212276	0.063795	-0.145858	1.208354	0.024945	-0.201755	0.923593	0.134444	-0.173398	0.936253	0.185871	-0.145143	1.533467	0.109869	-0.232387	0.972880	0.142077	-0.230786	0.920376	0.159122	-0.218420	0.928150	0.183022	-0.212756	0.985715	0.180160	-0.188613	1.321787	0.136622	-0.219431	1.339918	0.088369	-0.215521	1.402934	0.096272	-0.177507	1.395205	0.140239	0.153491	1.541778	0.056538	0.122655	1.486409	0.112822	0.118885	1.536829	0.084846	0.172092	1.493062	0.071440	0.080307	1.566676	0.027377	0.124696	1.365760	0.057748	-0.120514	1.515033	0.090751	0.114724	1.507649	0.105934
1322	13.220000	-0.001086	1.645929	-0.061025	-0.007860	1.404261	-0.127218	-0.204318	1.212034	0.063269	-0.145812	1.208157	0.024330	-0.197459	0.925287	0.141934	-0.169353	0.939897	0.192981	-0.145243	1.533329	0.109519	-0.228821	0.974216	0.148249	-0.226421	0.922332	0.166754	-0.214302	0.931021	0.190318	-0.210444	0.989601	0.186888	-0.188478	1.321436	0.136169	-0.219387	1.339631	0.087979	-0.215408	1.402660	0.095897	-0.177393	1.394845	0.139838	0.153431	1.541681	0.056354	0.122567	1.486312	0.112564	0.118780	1.536767	0.084664	0.172065	1.493027	0.071238	0.080235	1.566620	0.027136	0.124669	1.365712	0.057490	-0.120418	1.514778	0.090388	0.114644	1.507576	0.105684
